<svg width="64" height="64" version="1.1" viewBox="0 0 16.933 16.933" xmlns="http://www.w3.org/2000/svg" xmlns:xlink="http://www.w3.org/1999/xlink"><defs><linearGradient id="b" x1="96.083" x2="96.083" y1="232.72" y2="220.16" gradientTransform="matrix(.89908 0 0 .89908 -78.195 -194.68)" gradientUnits="userSpaceOnUse" xlink:href="#a"/><linearGradient id="a"><stop stop-color="#fd7d00" offset="0"/><stop stop-color="#ffc730" offset="1"/></linearGradient><linearGradient id="c" x1="96.083" x2="96.083" y1="232.72" y2="220.16" gradientTransform="translate(-90.65,-21.167)" gradientUnits="userSpaceOnUse" xlink:href="#a"/><filter id="d" x="-.15976" y="-.096085" width="1.3195" height="1.1922" color-interpolation-filters="sRGB"><feGaussianBlur stdDeviation="0.53647997"/></filter></defs><g fill-rule="evenodd"><path transform="matrix(.89908 0 0 .89908 3.3074 -175.65)" d="m6.1572 198.09c-0.3026 0-0.63159 0.50073-0.83762 0.83746-1.0867 1.7773-2.9696 4.8348-3.3501 5.4438-0.38045 0.60925-0.42545 1.2562 0.42097 1.2562h2.5099c-7.6e-4 1.841 0.01003 3.4686 6.23e-4 5.215 0 0.36232 0.11625 0.64759 0.41865 0.64759 0.30261 0 0.63158-0.50072 0.83763-0.83746 1.0867-1.7773 2.9696-4.8347 3.3501-5.4438 0.38044-0.60926 0.42543-1.2562-0.42098-1.2562h-2.5099c7.6e-4 -1.8411-0.01-3.4686-6.2e-4 -5.215 0-0.36233-0.11625-0.6476-0.41865-0.6476z" fill="url(#c)" filter="url(#d)" stroke-width=".35278"/><path d="m8.8432 2.4455c-0.27206 0-0.56785 0.4502-0.75309 0.75295-0.97703 1.5979-2.6699 4.3469-3.012 4.8944-0.34206 0.54777-0.38252 1.1294 0.37849 1.1294h2.2566c-6.897e-4 1.6552 0.00902 3.1186 5.71e-4 4.6887 0 0.32576 0.10452 0.58224 0.3764 0.58224 0.27207 0 0.56784-0.45019 0.7531-0.75295 0.97703-1.5979 2.6699-4.3468 3.012-4.8944 0.34205-0.54778 0.3825-1.1294-0.3785-1.1294h-2.2566c6.896e-4 -1.6553-0.00899-3.1186-5.475e-4 -4.6887 0-0.32576-0.10452-0.58225-0.3764-0.58225z" fill="url(#b)" stroke-width=".31718"/></g></svg>
