<svg width="64" height="64" version="1.1" viewBox="0 0 16.933 16.933" xmlns="http://www.w3.org/2000/svg" xmlns:xlink="http://www.w3.org/1999/xlink"><defs><linearGradient id="d" x1="162.5" x2="162.5" y1="215.31" y2="187.07" gradientTransform="matrix(.89908 0 0 .89908 -138.68 -175.65)" gradientUnits="userSpaceOnUse" xlink:href="#a"/><linearGradient id="a"><stop stop-color="#367bf0" offset="0"/><stop stop-color="#fd3535" offset="1"/></linearGradient><linearGradient id="c" x1="162.5" x2="162.5" y1="213.61" y2="192.36" gradientTransform="translate(-94.429)" gradientUnits="userSpaceOnUse" xlink:href="#a"/><filter id="b" x="-.11075" y="-.13093" width="1.2215" height="1.2619" color-interpolation-filters="sRGB"><feGaussianBlur stdDeviation="0.59096619"/></filter></defs><g shape-rendering="auto"><path transform="matrix(.89908 0 0 .89908 -53.784 -175.65)" d="m71.193 199.37c-0.22005-4e-3 -0.40086 0.17268-0.40092 0.39278v1.1794c-3e-5 0.17442 0.11491 0.328 0.28227 0.37714 1.5154 0.44478 2.6201 1.8274 2.6201 3.4668 0 1.6395-1.1047 3.0221-2.6201 3.4668-0.16732 0.0491-0.28226 0.20265-0.28227 0.37705v1.1794c4e-5 0.25167 0.23332 0.43845 0.47889 0.38342 2.5013-0.56017 4.3704-2.7697 4.3704-5.4067s-1.8691-4.8466-4.3704-5.4068c-0.0256-6e-3 -0.0517-9e-3 -0.078-9e-3zm-2.7519 0.44121c-0.0993 3e-3 -0.19384 0.0433-0.26455 0.11313l-2.7875 2.7504-2.1607 4.5e-4c-0.21698-2e-5 -0.39291 0.17581-0.39302 0.39278v3.4367c-2e-5 0.21706 0.17595 0.39303 0.39302 0.39301h2.1607l2.7875 2.7506c0.24837 0.24494 0.669 0.0689 0.66892-0.27989v-9.1642c-2e-5 -0.22149-0.18298-0.39921-0.40437-0.39279zm1.9417 2.2738c-0.21048 9e-3 -0.37656 0.18205-0.37651 0.39271v4.6109c0 0.29013 0.30382 0.48009 0.56477 0.35326 0.98852-0.48039 1.6725-1.489 1.6725-2.6558 0-1.1669-0.68393-2.1747-1.6704-2.6611-0.0591-0.029-0.12454-0.0428-0.19033-0.04z" color="#000000" color-rendering="auto" dominant-baseline="auto" fill="url(#c)" filter="url(#b)" image-rendering="auto" solid-color="#000000" style="font-feature-settings:normal;font-variant-alternates:normal;font-variant-caps:normal;font-variant-ligatures:normal;font-variant-numeric:normal;font-variant-position:normal;isolation:auto;mix-blend-mode:normal;shape-padding:0;text-decoration-color:#000000;text-decoration-line:none;text-decoration-style:solid;text-indent:0;text-orientation:mixed;text-transform:none;white-space:normal"/><path d="m10.224 3.5963c-0.19784-0.0036-0.36041 0.15525-0.36046 0.35314v1.0604c-2.6e-5 0.15682 0.10331 0.2949 0.25379 0.33908 1.3625 0.39989 2.3557 1.643 2.3557 3.1169 0 1.474-0.99322 2.7171-2.3557 3.1169-0.15044 0.04415-0.25378 0.1822-0.25379 0.339v1.0604c3.6e-5 0.22627 0.20978 0.3942 0.43056 0.34473 2.2489-0.50364 3.9294-2.4902 3.9294-4.8611 0-2.3709-1.6805-4.3575-3.9294-4.8612-0.02302-0.0054-0.04648-0.0081-0.07013-0.0081zm-2.4742 0.39668c-0.08928 0.0027-0.17428 0.03893-0.23785 0.10171l-2.5062 2.4728-1.9426 4.04e-4c-0.19508-1.8e-5 -0.35326 0.15807-0.35336 0.35314v3.0899c-1.8e-5 0.19515 0.15819 0.35337 0.35336 0.35335h1.9426l2.5062 2.473c0.22331 0.22022 0.60149 0.06195 0.60142-0.25164v-8.2394c-1.9e-5 -0.19914-0.16452-0.35892-0.36356-0.35315zm1.7458 2.0443c-0.18924 0.0081-0.33856 0.16368-0.33851 0.35308v4.1456c0 0.26085 0.27316 0.43164 0.50778 0.31761 0.88876-0.43191 1.5037-1.3387 1.5037-2.3878 0-1.0491-0.61491-1.9552-1.5018-2.3926-0.05314-0.02607-0.11197-0.03848-0.17112-0.03596z" color="#000000" color-rendering="auto" dominant-baseline="auto" fill="url(#d)" image-rendering="auto" solid-color="#000000" stroke-width=".89908" style="font-feature-settings:normal;font-variant-alternates:normal;font-variant-caps:normal;font-variant-ligatures:normal;font-variant-numeric:normal;font-variant-position:normal;isolation:auto;mix-blend-mode:normal;shape-padding:0;text-decoration-color:#000000;text-decoration-line:none;text-decoration-style:solid;text-indent:0;text-orientation:mixed;text-transform:none;white-space:normal"/></g></svg>
