<svg width="64" height="64" version="1.1" viewBox="0 0 16.933 16.933" xmlns="http://www.w3.org/2000/svg" xmlns:xlink="http://www.w3.org/1999/xlink"><defs><linearGradient id="e" x1="128.22" x2="128.22" y1="236.13" y2="219.89" gradientTransform="matrix(.60648 0 0 .60648 -70.963 -130.15)" gradientUnits="userSpaceOnUse" xlink:href="#a"/><linearGradient id="a"><stop stop-color="#80c6ed" offset="0"/><stop stop-color="#e6e6e6" offset="1"/></linearGradient><linearGradient id="g" x1="128.22" x2="128.22" y1="236.13" y2="219.89" gradientTransform="matrix(.35009 0 0 .35009 -34.146 -67.395)" gradientUnits="userSpaceOnUse" xlink:href="#a"/><linearGradient id="f" x1="128.22" x2="128.22" y1="236.13" y2="219.89" gradientTransform="matrix(.2005 0 0 .2005 -13.204 -41.466)" gradientUnits="userSpaceOnUse" xlink:href="#a"/><linearGradient id="d" x1="128.22" x2="128.22" y1="236.13" y2="219.89" gradientTransform="matrix(.67455 0 0 .67455 -50.857 50.614)" gradientUnits="userSpaceOnUse" xlink:href="#a"/><filter id="h" x="-.157" y="-.20932" width="1.314" height="1.4186" color-interpolation-filters="sRGB"><feGaussianBlur stdDeviation="0.614306"/></filter><linearGradient id="c" x1="128.22" x2="128.22" y1="236.13" y2="219.89" gradientTransform="matrix(.22301 0 0 .22301 13.385 149.25)" gradientUnits="userSpaceOnUse" xlink:href="#a"/><filter id="i" x="-.47487" y="-.63297" width="1.9497" height="2.2659" color-interpolation-filters="sRGB"><feGaussianBlur stdDeviation="0.614306"/></filter><linearGradient id="b" x1="128.22" x2="128.22" y1="236.13" y2="219.89" gradientTransform="matrix(.38938 0 0 .38938 -9.9079 120.41)" gradientUnits="userSpaceOnUse" xlink:href="#a"/><filter id="j" x="-.27198" y="-.3626" width="1.544" height="1.7252" color-interpolation-filters="sRGB"><feGaussianBlur stdDeviation="0.614306"/></filter></defs><path class="ColorScheme-Text" transform="matrix(.89908 0 0 .89908 -25.238 -175.65)" d="m35.266 199.51c-1.3415 2e-3 -2.5331 0.8763-2.9628 2.176-0.86704 0.42606-1.4188 1.3224-1.4197 2.3061 0 1.4145 1.1212 2.5612 2.5043 2.5612 0.61411-2e-3 1.2064-0.23319 1.6642-0.6518 0.0712 7e-3 0.14264 0.011 0.21407 0.011 0.45741-2e-3 0.90898-0.10514 1.3229-0.30416 0.36331 0.19921 0.76912 0.30376 1.1814 0.30416 1.3833-2.4e-4 2.5044-1.1474 2.5039-2.562-1.4e-4 -1.4145-1.1214-2.5611-2.5045-2.561h-4e-3c-0.59011-0.80428-1.5157-1.278-2.4993-1.2796z" color="#ffffff" fill="url(#d)" filter="url(#h)" stroke-width=".26458"/><path class="ColorScheme-Text" d="m6.469 3.7222c-1.2061 0.0018-2.2775 0.78787-2.6638 1.9564-0.77954 0.38306-1.2756 1.1889-1.2764 2.0734 0 1.2718 1.0081 2.3027 2.2516 2.3027 0.55214-0.0018 1.0847-0.20966 1.4963-0.58602 0.06402 0.0063 0.12825 0.0099 0.19247 0.0099 0.41125-0.0018 0.81725-0.09453 1.1894-0.27347 0.32665 0.17911 0.6915 0.27311 1.0622 0.27347 1.2437-2.17e-4 2.2517-1.0316 2.2512-2.3035-1.26e-4 -1.2718-1.0082-2.3026-2.2518-2.3026h-0.0036c-0.53056-0.72312-1.3627-1.149-2.2471-1.1505z" color="#ffffff" fill="url(#e)" stroke-width=".23788"/><path class="ColorScheme-Text" transform="matrix(.89908 0 0 .89908 -25.238 -175.65)" d="m41.858 198.48c-0.4435 4.5e-4 -0.83748 0.28972-0.97955 0.71941-0.28665 0.14086-0.46907 0.43718-0.46937 0.76241 0 0.46766 0.37069 0.84676 0.82795 0.84676 0.20304-4.4e-4 0.39886-0.0771 0.55022-0.21549 0.0235 2e-3 0.0472 3e-3 0.0708 3e-3 0.15122-4.5e-4 0.30051-0.0348 0.43737-0.10056 0.12011 0.0659 0.25427 0.10042 0.39058 0.10056 0.45732-8e-5 0.82796-0.37933 0.82782-0.84704-5e-5 -0.46764-0.37075-0.84671-0.82802-0.84668h-2e-3c-0.1951-0.2659-0.50112-0.42251-0.82629-0.42304z" color="#ffffff" fill="url(#c)" filter="url(#i)" stroke-width=".26458"/><path class="ColorScheme-Text" d="m12.396 2.7961c-0.39874 4.04e-4 -0.75296 0.26048-0.8807 0.64681-0.25772 0.12664-0.42173 0.39306-0.422 0.68547 0 0.42047 0.33328 0.76131 0.7444 0.76131 0.18255-4.05e-4 0.35861-0.06932 0.49469-0.19374 0.02113 0.0018 0.04244 0.0027 0.06366 0.0027 0.13596-4.04e-4 0.27018-0.03129 0.39323-0.09041 0.10799 0.05925 0.22861 0.09029 0.35116 0.09041 0.41117-7.2e-5 0.7444-0.34105 0.74428-0.76156-4.6e-5 -0.42045-0.33334-0.76126-0.74446-0.76124h-0.0018c-0.17541-0.23906-0.45055-0.37987-0.74291-0.38035z" color="#ffffff" fill="url(#f)" stroke-width=".23788"/><path class="ColorScheme-Text" transform="matrix(.89908 0 0 .89908 -25.238 -175.65)" d="m39.806 206.36c-0.77434 7.8e-4 -1.4622 0.50584-1.7103 1.2561-0.50048 0.24594-0.81899 0.76331-0.81951 1.3312 0 0.81652 0.64722 1.4784 1.4456 1.4784 0.35449-7.7e-4 0.69639-0.13461 0.96066-0.37624 0.0411 4e-3 0.0823 6e-3 0.12358 6e-3 0.26403-7.9e-4 0.52469-0.0607 0.76364-0.17558 0.20972 0.11499 0.44396 0.17535 0.68195 0.17558 0.79846-1.5e-4 1.4456-0.66231 1.4454-1.4789-8e-5 -0.8165-0.64733-1.4783-1.4457-1.4783h-3e-3c-0.34063-0.46426-0.87493-0.7377-1.4427-0.73862z" color="#ffffff" fill="url(#b)" filter="url(#j)" stroke-width=".26458"/><path class="ColorScheme-Text" d="m10.551 9.8809c-0.6962 6.89e-4 -1.3146 0.45479-1.5377 1.1293-0.44997 0.22112-0.73634 0.68628-0.73681 1.1969 0 0.73412 0.5819 1.3292 1.2997 1.3292 0.31872-6.89e-4 0.62611-0.12103 0.86371-0.33827 0.03695 0.0036 0.074 0.0054 0.11111 0.0054 0.23738-7.14e-4 0.47174-0.05458 0.68658-0.15786 0.18856 0.10339 0.39916 0.15766 0.61313 0.15786 0.71788-1.35e-4 1.2997-0.59547 1.2995-1.3297-7.3e-5 -0.7341-0.582-1.3291-1.2998-1.3291h-0.0027c-0.30626-0.41741-0.78664-0.66325-1.2971-0.66408z" color="#ffffff" fill="url(#g)" stroke-width=".23788"/></svg>
