<svg width="512" height="512" version="1.1" viewBox="0 0 135.47 135.47" xmlns="http://www.w3.org/2000/svg" xmlns:xlink="http://www.w3.org/1999/xlink"><defs><linearGradient id="a"><stop stop-color="#fd7d00" offset="0"/><stop stop-color="#ffc730" offset="1"/></linearGradient><style type="text/css">.ColorScheme-Text { color:#ffffff; } .ColorScheme-Highlight { color:#367bf0; }</style><filter id="c" x="-.038537" y="-.033777" width="1.0771" height="1.0676" color-interpolation-filters="sRGB"><feGaussianBlur stdDeviation="1.4818297"/></filter><filter id="d" x="-.048806" y="-.028517" width="1.0976" height="1.057" color-interpolation-filters="sRGB"><feGaussianBlur stdDeviation="0.86981493"/></filter><filter id="e" x="-.038536" y="-.033777" width="1.0771" height="1.0676" color-interpolation-filters="sRGB"><feGaussianBlur stdDeviation="1.4818479"/></filter><filter id="f" x="-.048806" y="-.028517" width="1.0976" height="1.057" color-interpolation-filters="sRGB"><feGaussianBlur stdDeviation="0.86981503"/></filter><filter id="g" x="-.051161" y="-.02777" width="1.1023" height="1.0555" color-interpolation-filters="sRGB"><feGaussianBlur stdDeviation="2.91156"/></filter><filter id="h" x="-.05425" y="-.026938" width="1.1085" height="1.0539" color-interpolation-filters="sRGB"><feGaussianBlur stdDeviation="2.8226605"/></filter><filter id="i" x="-.01298" y="-.011158" width="1.026" height="1.0223" color-interpolation-filters="sRGB"><feGaussianBlur stdDeviation="1.580912"/></filter><filter id="j" x="-.042393" y="-.031282" width="1.0848" height="1.0626" color-interpolation-filters="sRGB"><feGaussianBlur stdDeviation="4.5887708"/></filter><filter id="k" x="-.039508" y="-.033064" width="1.079" height="1.0661" color-interpolation-filters="sRGB"><feGaussianBlur stdDeviation="4.7826975"/></filter><linearGradient id="m" x1="-223.13" x2="-159.8" y1="-113.74" y2="-50.41" gradientTransform="translate(-6.9296e-4,-4.7575e-4)" gradientUnits="userSpaceOnUse" xlink:href="#a"/><filter id="l" x="-.13608" y="-.10732" width="1.2722" height="1.2146" color-interpolation-filters="sRGB"><feGaussianBlur stdDeviation="4.7083522"/></filter><linearGradient id="b" x1="53.192" x2="91.064" y1="109.22" y2="43.621" gradientTransform="translate(-.037687 -.024821)" gradientUnits="userSpaceOnUse" xlink:href="#a"/></defs><path transform="matrix(0 -.84224 .84224 0 147.97 -73.348)" d="m-206.35-125.4a7.9383 7.9383 0 0 0-6.998 4.0664c-11.054 19.146-8.9469 43.234 5.2637 60.17 14.211 16.936 37.569 23.194 58.344 15.633 20.775-7.5613 34.643-27.369 34.643-49.477a7.9383 7.9383 0 1 0-15.875 0c0 15.489-9.6428 29.261-24.197 34.559s-30.796 0.94693-40.752-10.918c-9.9558-11.865-11.422-28.616-3.6777-42.029a7.9383 7.9383 0 0 0-6.75-12.004z" color="#000000" color-rendering="auto" dominant-baseline="auto" fill="url(#m)" filter="url(#l)" image-rendering="auto" opacity=".3" shape-rendering="auto" solid-color="#000000" style="font-feature-settings:normal;font-variant-alternates:normal;font-variant-caps:normal;font-variant-ligatures:normal;font-variant-numeric:normal;font-variant-position:normal;isolation:auto;mix-blend-mode:normal;paint-order:normal;shape-padding:0;text-decoration-color:#000000;text-decoration-line:none;text-decoration-style:solid;text-indent:0;text-orientation:mixed;text-transform:none;white-space:normal"/><path transform="matrix(-.59556 .59556 -.59556 -.59556 147.97 -73.348)" d="m226.77-43.709a7.9383 7.9383 0 0 0-7.3066 4.8438c-7.9716 18.117-28.611 26.647-47.047 19.443a7.9383 7.9383 0 1 0-5.7773 14.785c26.207 10.24 56.024-2.0826 67.355-27.836a7.9383 7.9383 0 0 0-7.2246-11.236z" color="#000000" color-rendering="auto" dominant-baseline="auto" filter="url(#f)" image-rendering="auto" opacity=".1" shape-rendering="auto" solid-color="#000000" style="font-feature-settings:normal;font-variant-alternates:normal;font-variant-caps:normal;font-variant-ligatures:normal;font-variant-numeric:normal;font-variant-position:normal;isolation:auto;mix-blend-mode:normal;paint-order:normal;shape-padding:0;text-decoration-color:#000000;text-decoration-line:none;text-decoration-style:solid;text-indent:0;text-orientation:mixed;text-transform:none;white-space:normal"/><circle cx="497.76" cy="217.12" r="0" fill="#2b3545" stroke="#2b3545" stroke-linejoin="round" stroke-width="1.1142" style="paint-order:normal"/><circle cx="501.84" cy="223.42" r="0" fill="#2b3545" stroke="#2b3545" stroke-linejoin="round" stroke-width="1.1142" style="paint-order:normal"/><circle cx="506" cy="220.92" r="0" fill="#2b3545" stroke="#2b3545" stroke-linejoin="round" stroke-width="1.1142" style="paint-order:normal"/><circle cx="497.76" cy="218.01" r="0" fill="#2b3545" opacity=".3" stroke="#2b3545" stroke-linejoin="round" stroke-width="1.1142" style="paint-order:normal"/><circle cx="501.84" cy="224.32" r="0" fill="#2b3545" opacity=".3" stroke="#2b3545" stroke-linejoin="round" stroke-width="1.1142" style="paint-order:normal"/><circle cx="506" cy="221.81" r="0" fill="#2b3545" opacity=".3" stroke="#2b3545" stroke-linejoin="round" stroke-width="1.1142" style="paint-order:normal"/><circle cx="-8.7886" cy="112.56" r="0" fill="#2b3545" stroke="#2b3545" stroke-linejoin="round" stroke-width="1.1142" style="paint-order:normal"/><circle cx="-4.7121" cy="118.87" r="0" fill="#2b3545" stroke="#2b3545" stroke-linejoin="round" stroke-width="1.1142" style="paint-order:normal"/><circle cx="-.55146" cy="116.36" r="0" fill="#2b3545" stroke="#2b3545" stroke-linejoin="round" stroke-width="1.1142" style="paint-order:normal"/><circle cx="-8.7886" cy="113.45" r="0" fill="#2b3545" opacity=".3" stroke="#2b3545" stroke-linejoin="round" stroke-width="1.1142" style="paint-order:normal"/><circle cx="-4.7121" cy="119.76" r="0" fill="#2b3545" opacity=".3" stroke="#2b3545" stroke-linejoin="round" stroke-width="1.1142" style="paint-order:normal"/><circle cx="-.55146" cy="117.25" r="0" fill="#2b3545" opacity=".3" stroke="#2b3545" stroke-linejoin="round" stroke-width="1.1142" style="paint-order:normal"/><path transform="matrix(.84224 0 0 .84224 4.4865 10.882)" d="m37.308 101.1a7.9383 7.9383 0 0 0 2.4024 5.4551c16.824 16.824 42.952 20.265 63.557 8.3691 20.605-11.896 30.689-36.245 24.531-59.227s-27.065-39.025-50.857-39.025a7.9383 7.9383 0 1 0 0 15.875c16.684 0 31.205 11.142 35.523 27.258 4.3182 16.116-2.6859 33.027-17.135 41.369-14.449 8.3421-32.597 5.9537-44.395-5.8438a7.9383 7.9383 0 0 0-13.627 5.7695z" color="#000000" color-rendering="auto" dominant-baseline="auto" filter="url(#c)" image-rendering="auto" opacity=".05" shape-rendering="auto" solid-color="#000000" style="font-feature-settings:normal;font-variant-alternates:normal;font-variant-caps:normal;font-variant-ligatures:normal;font-variant-numeric:normal;font-variant-position:normal;isolation:auto;mix-blend-mode:normal;paint-order:normal;shape-padding:0;text-decoration-color:#000000;text-decoration-line:none;text-decoration-style:solid;text-indent:0;text-orientation:mixed;text-transform:none;white-space:normal"/><path transform="matrix(0 -.84224 .84224 0 147.97 -73.348)" d="m-197.93-136.23a7.9383 7.9383 0 0 0-5.457 2.4024c-16.824 16.824-20.263 42.952-8.3672 63.557 11.896 20.605 36.245 30.691 59.227 24.533s39.025-27.067 39.025-50.859a7.9383 7.9383 0 1 0-15.875 0c0 16.684-11.144 31.207-27.26 35.525-16.116 4.3182-33.027-2.6879-41.369-17.137-8.342-14.449-5.9517-32.597 5.8457-44.395a7.9383 7.9383 0 0 0-5.7695-13.627z" color="#000000" color-rendering="auto" dominant-baseline="auto" fill="#fff" filter="url(#e)" image-rendering="auto" opacity=".5" shape-rendering="auto" solid-color="#000000" style="font-feature-settings:normal;font-variant-alternates:normal;font-variant-caps:normal;font-variant-ligatures:normal;font-variant-numeric:normal;font-variant-position:normal;isolation:auto;mix-blend-mode:normal;paint-order:normal;shape-padding:0;text-decoration-color:#000000;text-decoration-line:none;text-decoration-style:solid;text-indent:0;text-orientation:mixed;text-transform:none;white-space:normal"/><path transform="matrix(-.59556 .59556 -.59556 -.59556 147.97 -73.348)" d="m226.77-39.219a7.9383 7.9383 0 0 0-7.3066 4.8438c-7.9716 18.117-28.611 26.647-47.047 19.443a7.9383 7.9383 0 1 0-5.7773 14.785c26.207 10.24 56.024-2.0826 67.355-27.836a7.9383 7.9383 0 0 0-7.2246-11.236z" color="#000000" color-rendering="auto" dominant-baseline="auto" fill="#fff" filter="url(#d)" image-rendering="auto" opacity=".5" shape-rendering="auto" solid-color="#000000" style="font-feature-settings:normal;font-variant-alternates:normal;font-variant-caps:normal;font-variant-ligatures:normal;font-variant-numeric:normal;font-variant-position:normal;isolation:auto;mix-blend-mode:normal;paint-order:normal;shape-padding:0;text-decoration-color:#000000;text-decoration-line:none;text-decoration-style:solid;text-indent:0;text-orientation:mixed;text-transform:none;white-space:normal"/><path d="m67.948 30.273a37.661 37.661 0 0 1 36.377 27.914 37.661 37.661 0 0 1-17.547 42.363 37.661 37.661 0 0 1-45.461-5.9851" fill="none" stroke="#f2f3f7" stroke-linecap="round" stroke-linejoin="round" stroke-width="13.371" style="paint-order:normal"/><path d="m32.851 81.582a37.661 37.661 0 0 1 19.987-48.145" fill="none" stroke="#f2f3f7" stroke-linecap="round" stroke-linejoin="round" stroke-width="13.371" style="paint-order:normal"/><path d="m36.465 94.233a4.4573 4.4573 0 0 0 1.3078 3.0811c13.332 13.692 34.275 16.686 50.909 7.2775 16.634-9.4082 24.861-28.898 19.997-47.38-4.8641-18.481-21.62-31.398-40.73-31.398a4.4573 4.4573 0 1 0 0 8.9143c15.105 0 28.266 10.145 32.111 24.753 3.8447 14.608-2.6161 29.917-15.764 37.354-13.148 7.4361-29.599 5.0845-40.136-5.7378a4.4573 4.4573 0 0 0-7.6937 3.137z" color="#000000" color-rendering="auto" dominant-baseline="auto" fill="#cbcfdf" image-rendering="auto" opacity=".3" shape-rendering="auto" solid-color="#000000" stroke-width=".84224" style="font-feature-settings:normal;font-variant-alternates:normal;font-variant-caps:normal;font-variant-ligatures:normal;font-variant-numeric:normal;font-variant-position:normal;isolation:auto;mix-blend-mode:normal;paint-order:normal;shape-padding:0;text-decoration-color:#000000;text-decoration-line:none;text-decoration-style:solid;text-indent:0;text-orientation:mixed;text-transform:none;white-space:normal"/><path transform="matrix(.22284 0 0 .22284 148.06 62.843)" d="m-359.09-165.52a20.002 20.002 0 0 0-13.33 35.039 20.002 20.002 0 0 1 15.33-33.039c50.812 0 97.912 20.352 132.4 54.188-34.658-35.029-82.599-56.188-134.4-56.188zm106.35 84.584c17.705 18.034 30.959 40.714 37.744 66.494 17.253 65.551-11.739 134.25-70.74 167.62-57.974 32.788-130.26 23.167-177.62-23.25 47.306 48.134 120.82 58.503 179.62 25.25 59.001-33.369 87.993-102.07 70.74-167.62-7.0384-26.742-21.036-50.149-39.744-68.494zm-227.38 202.12a20.002 20.002 0 0 0-20.254 20.326 20.002 20.002 0 0 0 5.8672 13.826c1.0211 1.0486 2.055 2.0809 3.0957 3.1016-0.36437-0.36814-0.73382-0.72991-1.0957-1.1016a20.002 20.002 0 0 1-5.8672-13.826 20.002 20.002 0 0 1 34.307-14.283c-0.59738-0.59332-1.194-1.1878-1.7832-1.793a20.002 20.002 0 0 0-14.27-6.25z" color="#000000" color-rendering="auto" dominant-baseline="auto" filter="url(#i)" image-rendering="auto" opacity=".1" shape-rendering="auto" solid-color="#000000" style="font-feature-settings:normal;font-variant-alternates:normal;font-variant-caps:normal;font-variant-ligatures:normal;font-variant-numeric:normal;font-variant-position:normal;isolation:auto;mix-blend-mode:normal;paint-order:normal;shape-padding:0;text-decoration-color:#000000;text-decoration-line:none;text-decoration-style:solid;text-indent:0;text-orientation:mixed;text-transform:none;white-space:normal"/><path d="m32.851 81.582a37.661 37.661 0 0 1 19.987-48.145" fill="none" opacity=".3" stroke="#cbcfdf" stroke-linecap="round" stroke-linejoin="round" stroke-width="8.9134" style="paint-order:normal"/><path transform="matrix(.22284 0 0 .22284 147.97 62.7)" d="m-425.75-151.42a20.002 20.002 0 0 0-9.1836 1.7871c-92.59 40.564-136.95 147.4-100.31 241.62a20.002 20.002 0 0 0 5.7324 8.2012 20.002 20.002 0 0 1-3.7344-6.2031c-36.637-94.213 7.7182-201.06 100.31-241.62a20.002 20.002 0 0 1 21.439 3.1387 20.002 20.002 0 0 0-14.254-6.9219z" color="#000000" color-rendering="auto" dominant-baseline="auto" filter="url(#g)" image-rendering="auto" opacity=".1" shape-rendering="auto" solid-color="#000000" style="font-feature-settings:normal;font-variant-alternates:normal;font-variant-caps:normal;font-variant-ligatures:normal;font-variant-numeric:normal;font-variant-position:normal;isolation:auto;mix-blend-mode:normal;paint-order:normal;shape-padding:0;text-decoration-color:#000000;text-decoration-line:none;text-decoration-style:solid;text-indent:0;text-orientation:mixed;text-transform:none;white-space:normal"/><path transform="matrix(.22284 0 0 .22284 147.97 62.7)" d="m-413.49-146.5a20.002 20.002 0 0 1-7.3867 31.502c-73.334 32.128-108.1 115.86-79.08 190.48a20.002 20.002 0 0 1-4.3906 21.646 20.002 20.002 0 0 1-27.168 1.043 20.002 20.002 0 0 0 29.172 0.96289 20.002 20.002 0 0 0 4.3848-21.652c-29.017-74.62 5.7457-158.35 79.08-190.48a20.002 20.002 0 0 0 5.3887-33.5z" color="#000000" color-rendering="auto" dominant-baseline="auto" fill="#fff" filter="url(#h)" image-rendering="auto" shape-rendering="auto" solid-color="#000000" style="font-feature-settings:normal;font-variant-alternates:normal;font-variant-caps:normal;font-variant-ligatures:normal;font-variant-numeric:normal;font-variant-position:normal;isolation:auto;mix-blend-mode:normal;paint-order:normal;shape-padding:0;text-decoration-color:#000000;text-decoration-line:none;text-decoration-style:solid;text-indent:0;text-orientation:mixed;text-transform:none;white-space:normal"/><path transform="matrix(.22284 0 0 .22284 147.97 62.7)" d="m-359.09-165.52a20.002 20.002 0 0 0-10.965 36.824 20.002 20.002 0 0 1 16.965-30.824c49.702 0 96.139 19.505 130.58 52.396-34.946-36.504-83.93-58.396-136.58-58.396zm108.34 86.674c13.671 14.477 24.565 31.831 31.676 51.367 21.448 58.927 3.7976 124.79-44.24 165.1-48.038 40.309-115.97 46.251-170.28 14.896a20.002 20.002 0 0 0-30.252 17.008 20.002 20.002 0 0 0 9.2031 17.004 20.002 20.002 0 0 1-3.2031-11.004 20.002 20.002 0 0 1 30.252-17.008c54.308 31.354 122.24 25.412 170.28-14.896 48.038-40.309 65.688-106.18 44.24-165.1-8.1218-22.315-21.181-41.783-37.676-57.367z" color="#000000" color-rendering="auto" dominant-baseline="auto" fill="#fff" filter="url(#j)" image-rendering="auto" opacity=".3" shape-rendering="auto" solid-color="#000000" style="font-feature-settings:normal;font-variant-alternates:normal;font-variant-caps:normal;font-variant-ligatures:normal;font-variant-numeric:normal;font-variant-position:normal;isolation:auto;mix-blend-mode:normal;paint-order:normal;shape-padding:0;text-decoration-color:#000000;text-decoration-line:none;text-decoration-style:solid;text-indent:0;text-orientation:mixed;text-transform:none;white-space:normal"/><path transform="matrix(.22284 0 0 .22284 148.96 63.716)" d="m-376.06-134.69a20.002 20.002 0 0 0 16.965 9.1777c38.956 0 75.267 15.097 102.33 40.658-27.565-29.182-66.417-46.658-108.33-46.658a20.002 20.002 0 0 1-10.965-3.1777zm147.55 21.572c17.745 18.536 31.875 40.836 41.02 65.959 27.152 74.6 4.7029 158.4-56.111 209.43s-147.24 58.592-215.99 18.898a20.002 20.002 0 0 1-1.043-0.63281 20.002 20.002 0 0 0 7.043 6.6328c68.751 39.694 155.18 32.131 215.99-18.898s83.263-134.83 56.111-209.43c-10.153-27.895-26.448-52.314-47.02-71.959z" color="#000000" color-rendering="auto" dominant-baseline="auto" fill="#d41919" filter="url(#k)" image-rendering="auto" opacity=".3" shape-rendering="auto" solid-color="#000000" style="font-feature-settings:normal;font-variant-alternates:normal;font-variant-caps:normal;font-variant-ligatures:normal;font-variant-numeric:normal;font-variant-position:normal;isolation:auto;mix-blend-mode:normal;paint-order:normal;shape-padding:0;text-decoration-color:#000000;text-decoration-line:none;text-decoration-style:solid;text-indent:0;text-orientation:mixed;text-transform:none;white-space:normal"/><circle cx="692.71" cy="217.12" r="0" fill="#2b3545" stroke="#2b3545" stroke-linejoin="round" stroke-width="1.1142" style="paint-order:normal"/><circle cx="696.78" cy="223.42" r="0" fill="#2b3545" stroke="#2b3545" stroke-linejoin="round" stroke-width="1.1142" style="paint-order:normal"/><circle cx="700.94" cy="220.92" r="0" fill="#2b3545" stroke="#2b3545" stroke-linejoin="round" stroke-width="1.1142" style="paint-order:normal"/><circle cx="692.71" cy="218.01" r="0" fill="#2b3545" opacity=".3" stroke="#2b3545" stroke-linejoin="round" stroke-width="1.1142" style="paint-order:normal"/><circle cx="696.78" cy="224.32" r="0" fill="#2b3545" opacity=".3" stroke="#2b3545" stroke-linejoin="round" stroke-width="1.1142" style="paint-order:normal"/><circle cx="700.94" cy="221.81" r="0" fill="#2b3545" opacity=".3" stroke="#2b3545" stroke-linejoin="round" stroke-width="1.1142" style="paint-order:normal"/><path d="m67.884 30.114a37.755 37.755 0 0 1 35.577 24.761 37.755 37.755 0 0 1-11.147 41.888 37.755 37.755 0 0 1-43.178 3.8025" fill="none" stroke="url(#b)" stroke-linecap="round" stroke-width="8.4502"/></svg>
