<svg width="64" height="64" version="1.1" viewBox="0 0 16.933 16.933" xmlns="http://www.w3.org/2000/svg" xmlns:xlink="http://www.w3.org/1999/xlink"><defs><linearGradient id="d" x1="64.268" x2="64.268" y1="231.46" y2="220.32" gradientTransform="matrix(.53807 0 0 .54382 -23.35 -116.38)" gradientUnits="userSpaceOnUse" xlink:href="#a"/><linearGradient id="a"><stop stop-color="#3b6ab9" offset="0"/><stop stop-color="#23bac2" offset="1"/></linearGradient><linearGradient id="c" x1="64.268" x2="64.268" y1="231.46" y2="220.32" gradientTransform="matrix(.35457 0 0 .35836 -15.141 -70.066)" gradientUnits="userSpaceOnUse" xlink:href="#a"/><linearGradient id="b" x1="64.268" x2="64.268" y1="231.46" y2="220.32" gradientTransform="matrix(.35457 0 0 .35836 -17.872 -75.28)" gradientUnits="userSpaceOnUse" xlink:href="#a"/><linearGradient id="g" x1="64.268" x2="64.268" y1="231.46" y2="220.32" gradientTransform="matrix(.39437 0 0 .39858 -55.307 111.64)" gradientUnits="userSpaceOnUse" xlink:href="#a"/><filter id="h" x="-.3955" y="-.27734" width="1.791" height="1.5547" color-interpolation-filters="sRGB"><feGaussianBlur stdDeviation="0.54859524"/></filter><linearGradient id="f" x1="64.268" x2="64.268" y1="231.46" y2="220.32" gradientTransform="matrix(.39437 0 0 .39858 -52.27 117.44)" gradientUnits="userSpaceOnUse" xlink:href="#a"/><filter id="i" x="-.3955" y="-.27734" width="1.791" height="1.5547" color-interpolation-filters="sRGB"><feGaussianBlur stdDeviation="0.54859524"/></filter><linearGradient id="e" x1="64.268" x2="64.268" y1="231.46" y2="220.32" gradientTransform="matrix(.59847 0 0 .60486 -61.4 65.929)" gradientUnits="userSpaceOnUse" xlink:href="#a"/><filter id="j" x="-.26062" y="-.18276" width="1.5212" height="1.3655" color-interpolation-filters="sRGB"><feGaussianBlur stdDeviation="0.54859524"/></filter></defs><path transform="matrix(.89908 0 0 .89908 31.854 -175.65)" d="m-29.443 199.68c-0.5611 1.0005-1.6646 1.6227-2.0358 2.7417-0.21263 0.57886-0.04237 1.2867 0.46111 1.6596 0.77545 0.56895 2.0259 0.43319 2.5787-0.38418 0.36105-0.54559 0.18237-1.2585-0.14097-1.7768-0.26112-0.46457-0.69566-0.84018-0.79826-1.3836-0.06686-0.27986-0.08158-0.57015-0.06475-0.85671z" fill="url(#g)" filter="url(#h)" style="paint-order:normal"/><path d="m5.382 3.875c-0.50448 0.89953-1.4966 1.4589-1.8304 2.465-0.19117 0.52044-0.038094 1.1569 0.41458 1.4921 0.69719 0.51153 1.8215 0.38947 2.3185-0.34541 0.32461-0.49053 0.16397-1.1315-0.12674-1.5975-0.23477-0.41769-0.62546-0.75539-0.7177-1.244-0.060113-0.25162-0.073347-0.51261-0.058216-0.77025z" fill="url(#b)" stroke-width=".89908" style="paint-order:normal"/><path transform="matrix(.89908 0 0 .89908 31.854 -175.65)" d="m-26.406 205.47c-0.5611 1.0005-1.6646 1.6227-2.0358 2.7417-0.21263 0.57886-0.04237 1.2867 0.46111 1.6596 0.77545 0.56895 2.0259 0.43319 2.5787-0.38418 0.36105-0.54559 0.18237-1.2585-0.14097-1.7768-0.26112-0.46457-0.69566-0.84018-0.79826-1.3836-0.06686-0.27986-0.08158-0.57015-0.06475-0.85671z" fill="url(#f)" filter="url(#i)" style="paint-order:normal"/><path d="m8.1125 9.0807c-0.50448 0.89953-1.4966 1.4589-1.8304 2.465-0.19117 0.52044-0.038094 1.1568 0.41458 1.4921 0.69719 0.51153 1.8215 0.38947 2.3185-0.34541 0.32461-0.49053 0.16397-1.1315-0.12674-1.5975-0.23477-0.41769-0.62546-0.75539-0.7177-1.244-0.060113-0.25162-0.073347-0.51261-0.058216-0.77025z" fill="url(#c)" stroke-width=".89908" style="paint-order:normal"/><path transform="matrix(.89908 0 0 .89908 31.854 -175.65)" d="m-22.151 199.52c-0.85149 1.5183-2.526 2.4625-3.0894 4.1606-0.32267 0.87844-0.0643 1.9526 0.69974 2.5184 1.1768 0.8634 3.0743 0.65738 3.9133-0.583 0.54791-0.82795 0.27675-1.9098-0.21393-2.6963-0.39626-0.705-1.0557-1.275-1.2114-2.0996-0.10146-0.42469-0.1238-0.86522-0.09826-1.3001z" fill="url(#e)" filter="url(#j)" style="paint-order:normal"/><path d="m11.938 3.7312c-0.76556 1.3651-2.2711 2.214-2.7776 3.7407-0.29011 0.78979-0.057812 1.7556 0.62912 2.2643 1.058 0.77627 2.7641 0.59104 3.5184-0.52417 0.49262-0.7444 0.24882-1.7171-0.19234-2.4242-0.35627-0.63385-0.94916-1.1463-1.0892-1.8877-0.091221-0.38183-0.11131-0.7779-0.088344-1.1689z" fill="url(#d)" stroke-width=".89908" style="paint-order:normal"/></svg>
